<svg xmlns="http://www.w3.org/2000/svg" width="136" height="52" viewBox="0 0 136 52" fill="none">
<path fill-rule="evenodd" clip-rule="evenodd" d="M16.9409 0.121632C17.502 -0.15097 18.4031 0.0365791 18.0288 0.665379C17.7567 1.63438 17.5869 2.7226 17.876 3.69233C18.0288 4.5254 19.304 4.81399 18.3008 6.17408C15.9377 8.46902 13.8463 10.969 11.9591 13.5874C13.0814 13.8418 17.8249 10.5779 20.3581 9.69318C20.8851 9.26865 21.3783 9.25193 21.8202 9.64302L23.9456 13.3322C24.3878 14.0293 24.1328 14.7432 23.5375 15.4403C10.9733 32.0516 7.79345 43.341 11.6871 50.6349C12.265 51.7572 11.3472 52.3012 10.8881 51.7402C6.85839 46.7413 3.88308 41.9637 4.92009 38.8523C7.30051 31.4396 10.4289 25.4376 13.7103 20.0309L5.51531 25.5907C4.44418 26.2878 3.64511 26.118 3.08401 25.1996L0.448593 21.8839C-0.0954746 21.2725 -0.231492 20.5412 0.533782 19.5381C5.4304 13.0771 10.7521 6.58263 16.9409 0.121632Z" fill="#FF4444"/>
<path fill-rule="evenodd" clip-rule="evenodd" d="M124.208 30.7081V28.719C124.258 28.7531 124.343 28.7701 124.428 28.7869H127.574C128.764 28.6509 129.393 28.1071 129.461 27.1546L132.793 15.6787C133.099 14.6581 132.929 14.0628 131.994 14.0119C131.994 14.0119 128.1 13.9443 128.135 13.9784L124.208 27.2569V17.4808L125.635 12.2781L134.494 12.244C135.633 12.3799 136.126 12.9244 135.973 13.8592L131.994 28.6341C131.705 29.9264 130.906 30.6232 129.614 30.7081H124.208ZM124.208 12.9753L124.428 12.2098H124.208V12.9753ZM124.208 12.2098V12.9753L123.833 14.1653H122.49V12.2098H124.208ZM124.208 17.4808V27.2569L124.054 27.7669C123.918 28.1582 123.918 28.566 124.208 28.719V30.7081H122.49V23.6867L124.208 17.4808ZM122.49 12.2098V14.1653L119.107 14.1318C118.478 14.1994 118.036 14.5222 117.814 15.1001L116.692 19.2662C116.471 19.8782 116.573 20.3369 117.033 20.643H120.926L120.399 22.2415H116.624C116.148 22.3091 115.843 22.6326 115.656 23.1938L114.516 27.699C114.346 28.583 114.669 28.6509 115.026 28.9232H119.923L119.396 30.8104H112.917C112.799 30.7763 112.696 30.7592 112.595 30.7255V24.5195L115.332 13.7909C115.809 12.5675 116.692 12.1931 117.781 12.244L122.49 12.2098ZM122.49 23.6867L120.535 30.7081H122.49V23.6867ZM112.595 15.3894L113.309 14.4713C114.176 13.2813 113.836 12.329 112.595 12.2949V15.3894ZM112.595 12.2949V15.3894L103.125 27.444C102.649 27.9029 102.682 28.6852 103.346 28.702H109.789L109.245 30.8104H100.71V26.7299L109.739 14.8624C110.181 14.2845 109.789 13.9443 109.127 13.9443H103.839L103.923 12.2949H112.544C112.561 12.2949 112.578 12.2949 112.595 12.2949ZM112.595 24.5195L111.524 28.736C111.235 29.6882 111.421 30.4364 112.595 30.7255V24.5195ZM100.71 19.1644L102.58 12.2949H100.71V19.1644ZM100.71 12.2949V19.1644L97.5137 30.8271H94.5217L99.6051 12.2949H100.71ZM100.71 26.7299L99.1799 28.7531C98.5511 29.6882 98.7888 30.3853 99.8945 30.8104H100.71V26.7299ZM71.5004 30.8785V30.6232L81.2602 12.329L84.3373 12.2781L85.459 30.7592L82.858 30.7255L82.3651 23.8227C82.3993 23.3639 82.1776 23.108 81.7356 23.0571L79.1855 22.9554L79.5592 21.391H81.7356C81.9232 21.3401 82.6029 21.4084 82.3143 20.4387L81.9573 16.3417L81.2936 16.2734L73.6092 30.8785H71.5004ZM71.5004 28.7531L75.9892 12.2949H73.0139L71.5004 17.8377V28.7531ZM71.5004 12.6518L71.6196 12.2098H71.5004V12.6518ZM90.594 12.2949H93.5527L89.4382 27.427C89.234 28.2261 89.4208 28.6509 89.9987 28.6682L94.1815 28.7701L93.5527 30.7933L87.6696 30.8271C86.4629 30.5383 86.0543 29.5521 86.1394 28.6171L90.594 12.2949ZM71.5004 12.2098V12.6518L71.0417 14.1653H69.7834V12.2098H71.5004ZM71.5004 17.8377V28.7531L70.9225 30.8271H69.7834V24.0945L71.5004 17.8377ZM71.5004 30.6232L71.3644 30.8785H71.5004V30.6232ZM69.7834 12.2098V14.1653L66.3151 14.1318C65.6858 14.1994 65.2607 14.5222 65.0228 15.1001C62.7276 23.7034 64.2578 17.7701 61.7246 27.699C61.5542 28.583 61.8774 28.6509 62.2517 28.9232H67.1312L66.6039 30.8104H60.2452V22.8027L62.5404 13.7909C63.0163 12.5675 63.9179 12.1931 64.989 12.244L69.7834 12.2098ZM69.7834 24.0945L67.947 30.8271H69.7834V24.0945ZM60.2452 14.1653H61.2825L61.8774 12.2098H60.2452V14.1653ZM60.2452 12.2098V14.1653L56.5387 14.1318C55.9097 14.1994 55.4846 14.5222 55.2467 15.1001L54.1415 19.2662C53.9035 19.8782 54.0223 20.3369 54.4814 20.643H58.358L57.848 22.2415H54.0734C53.5974 22.3091 53.2743 22.6326 53.1045 23.1938L51.965 27.699C51.7781 28.583 52.1013 28.6509 52.4753 28.9232H57.355L56.8448 30.8104H50.3669C50.2479 30.7763 50.1292 30.7592 50.0269 30.7255V24.5536L52.7643 13.7909C53.2575 12.5675 54.1415 12.1931 55.2126 12.244L60.2452 12.2098ZM60.2452 22.8027L58.732 28.736C58.4259 29.7731 58.6641 30.5554 60.1433 30.8104H60.2452V22.8027ZM50.0269 19.0786L51.1829 14.4204C51.336 13.2297 50.962 12.5333 50.0269 12.329V19.0786ZM40.9306 12.2781L40.4547 14.1318H39.0775V12.2949L40.9306 12.2781ZM50.0269 12.329C49.8739 12.2949 49.7038 12.2781 49.5169 12.2781L42.257 12.244L39.0775 23.9925V30.8104H39.7405L44.2632 14.1653L47.2555 14.1994C47.8847 14.3186 48.2247 14.6756 48.2588 15.2702L47.0346 20.3028C46.8815 21.1191 46.3375 21.6629 45.4024 21.9696L43.1069 22.4625L42.6991 24.2646L47.6638 23.3806C48.633 23.108 49.2957 22.4792 49.4828 21.3059L50.0269 19.0786V12.329ZM50.0269 24.5536V30.7255C48.8539 30.4191 48.6838 29.6882 48.9558 28.736L50.0269 24.5536ZM39.0775 14.1318H34.98C33.4156 14.267 32.6336 17.7185 33.3818 18.6032L37.0372 21.833C37.6832 22.4283 38.0404 23.1596 37.7854 24.1626L36.5951 28.8042C36.4253 29.9943 35.7622 30.6232 34.606 30.7255H27.1592L27.6521 28.991L32.6847 28.9569C33.3989 29.0248 34.0449 28.974 34.2658 28.0733L35.3031 24.4176C35.2861 23.8227 35.2012 23.2272 34.6739 22.6493L30.9336 19.2662C30.0833 17.1064 31.8686 12.6692 34.0108 12.3123L39.0775 12.2949V14.1318ZM39.0775 23.9925L37.2244 30.8104H39.0775V23.9925Z" fill="white"/>
</svg>