<svg width="144" height="29" viewBox="0 0 144 29" fill="none" xmlns="http://www.w3.org/2000/svg">
<path d="M8.988 2.368C12.06 2.368 14.352 2.98 15.864 4.204C17.376 5.428 18.132 7.18 18.132 9.46C18.132 11.068 17.7 12.436 16.836 13.564C15.996 14.692 14.844 15.436 13.38 15.796V15.868C14.292 16.18 15.012 16.672 15.54 17.344C16.068 18.016 16.62 19.156 17.196 20.764L19.824 28H15.108L12.948 21.556C12.444 20.092 11.844 19.084 11.148 18.532C10.476 17.98 9.492 17.704 8.196 17.704H4.488V28H0.168V2.368H8.988ZM4.488 14.176H8.772C10.476 14.176 11.736 13.804 12.552 13.06C13.368 12.316 13.776 11.296 13.776 10C13.776 7.288 12.024 5.932 8.52 5.932H4.488V14.176ZM23.1475 28V9.712H27.2515V28H23.1475ZM23.1475 6.292V2.368H27.2515V6.292H23.1475ZM44.3791 28V25.48H44.3071C43.7791 26.416 43.0231 27.148 42.0391 27.676C41.0791 28.18 40.0231 28.432 38.8711 28.432C37.3351 28.432 35.9911 28.048 34.8391 27.28C33.6871 26.488 32.7991 25.372 32.1751 23.932C31.5511 22.468 31.2391 20.776 31.2391 18.856C31.2391 16.936 31.5511 15.256 32.1751 13.816C32.7991 12.352 33.6751 11.224 34.8031 10.432C35.9551 9.64 37.2991 9.244 38.8351 9.244C39.9871 9.244 41.0311 9.496 41.9671 10C42.9271 10.504 43.6711 11.2 44.1991 12.088H44.2711V2.368H48.3751V28H44.3791ZM40.0591 12.448C38.6671 12.448 37.5631 13.036 36.7471 14.212C35.9311 15.364 35.5231 16.912 35.5231 18.856C35.5231 20.8 35.9311 22.36 36.7471 23.536C37.5631 24.688 38.6671 25.264 40.0591 25.264C41.4031 25.264 42.4711 24.688 43.2631 23.536C44.0791 22.384 44.4871 20.824 44.4871 18.856C44.4871 16.864 44.0791 15.304 43.2631 14.176C42.4711 13.024 41.4031 12.448 40.0591 12.448ZM61.224 25.516C62.376 25.516 63.312 25.24 64.032 24.688C64.776 24.136 65.244 23.404 65.436 22.492H69.648C69.288 24.22 68.364 25.66 66.876 26.812C65.388 27.964 63.504 28.54 61.224 28.54C59.4 28.54 57.816 28.132 56.472 27.316C55.152 26.476 54.132 25.312 53.412 23.824C52.716 22.336 52.368 20.608 52.368 18.64C52.368 16.84 52.716 15.22 53.412 13.78C54.108 12.34 55.116 11.212 56.436 10.396C57.78 9.58 59.352 9.172 61.152 9.172C63.216 9.172 64.968 9.736 66.408 10.864C67.872 11.968 68.856 13.48 69.36 15.4C69.696 16.48 69.864 17.908 69.864 19.684H56.436C56.508 21.652 56.976 23.116 57.84 24.076C58.728 25.036 59.856 25.516 61.224 25.516ZM61.152 12.196C59.88 12.196 58.824 12.604 57.984 13.42C57.168 14.236 56.676 15.424 56.508 16.984H65.76C65.616 15.424 65.124 14.236 64.284 13.42C63.468 12.604 62.424 12.196 61.152 12.196ZM83.2028 2.368C86.2748 2.368 88.5668 2.98 90.0788 4.204C91.5908 5.428 92.3468 7.18 92.3468 9.46C92.3468 11.068 91.9148 12.436 91.0508 13.564C90.2108 14.692 89.0588 15.436 87.5948 15.796V15.868C88.5068 16.18 89.2268 16.672 89.7548 17.344C90.2828 18.016 90.8348 19.156 91.4108 20.764L94.0388 28H89.3228L87.1628 21.556C86.6588 20.092 86.0588 19.084 85.3628 18.532C84.6908 17.98 83.7068 17.704 82.4108 17.704H78.7028V28H74.3828V2.368H83.2028ZM78.7028 14.176H82.9868C84.6908 14.176 85.9508 13.804 86.7668 13.06C87.5828 12.316 87.9908 11.296 87.9908 10C87.9908 7.288 86.2388 5.932 82.7348 5.932H78.7028V14.176ZM104.607 25.516C105.759 25.516 106.695 25.24 107.415 24.688C108.159 24.136 108.627 23.404 108.819 22.492H113.031C112.671 24.22 111.747 25.66 110.259 26.812C108.771 27.964 106.887 28.54 104.607 28.54C102.783 28.54 101.199 28.132 99.8548 27.316C98.5348 26.476 97.5148 25.312 96.7948 23.824C96.0988 22.336 95.7508 20.608 95.7508 18.64C95.7508 16.84 96.0988 15.22 96.7948 13.78C97.4908 12.34 98.4988 11.212 99.8188 10.396C101.163 9.58 102.735 9.172 104.535 9.172C106.599 9.172 108.351 9.736 109.791 10.864C111.255 11.968 112.239 13.48 112.743 15.4C113.079 16.48 113.247 17.908 113.247 19.684H99.8188C99.8908 21.652 100.359 23.116 101.223 24.076C102.111 25.036 103.239 25.516 104.607 25.516ZM104.535 12.196C103.263 12.196 102.207 12.604 101.367 13.42C100.551 14.236 100.059 15.424 99.8908 16.984H109.143C108.999 15.424 108.507 14.236 107.667 13.42C106.851 12.604 105.807 12.196 104.535 12.196ZM120.578 28L114.206 9.712H118.49L120.866 17.164C121.658 19.588 122.438 22.252 123.206 25.156H123.278C124.046 22.252 124.826 19.588 125.618 17.164L127.994 9.712H132.278L125.906 28H120.578ZM138.442 0.296798C139.508 0.296798 140.444 0.527199 141.25 0.987999C142.071 1.4488 142.705 2.104 143.151 2.9536C143.598 3.7888 143.821 4.7536 143.821 5.848C143.821 6.9424 143.598 7.9072 143.151 8.7424C142.705 9.5776 142.071 10.2256 141.25 10.6864C140.444 11.1472 139.508 11.3776 138.442 11.3776C137.377 11.3776 136.434 11.1472 135.613 10.6864C134.792 10.2256 134.158 9.5776 133.712 8.7424C133.266 7.9072 133.042 6.9424 133.042 5.848C133.042 4.7536 133.266 3.7888 133.712 2.9536C134.158 2.104 134.792 1.4488 135.613 0.987999C136.434 0.527199 137.377 0.296798 138.442 0.296798ZM138.442 1.0528C137.521 1.0528 136.707 1.2544 136.002 1.6576C135.31 2.0464 134.77 2.608 134.382 3.3424C133.993 4.0624 133.798 4.8976 133.798 5.848C133.798 6.7984 133.993 7.6408 134.382 8.3752C134.77 9.0952 135.31 9.6568 136.002 10.06C136.707 10.4488 137.521 10.6432 138.442 10.6432C139.364 10.6432 140.17 10.4488 140.862 10.06C141.567 9.6568 142.114 9.0952 142.503 8.3752C142.892 7.6408 143.086 6.7984 143.086 5.848C143.086 4.8976 142.892 4.0624 142.503 3.3424C142.114 2.608 141.567 2.0464 140.862 1.6576C140.17 1.2544 139.364 1.0528 138.442 1.0528ZM138.572 2.3272C139.35 2.3272 139.933 2.5 140.322 2.8456C140.725 3.1912 140.926 3.6736 140.926 4.2928C140.926 4.6816 140.811 5.0344 140.581 5.3512C140.365 5.6536 140.07 5.8552 139.695 5.956V5.9992C139.926 6.0568 140.106 6.172 140.235 6.3448C140.379 6.5032 140.523 6.7696 140.667 7.144L141.38 9.1744H139.976L139.393 7.468C139.292 7.1224 139.141 6.8776 138.939 6.7336C138.752 6.5896 138.486 6.5176 138.14 6.5176H137.254V9.1744H135.937V2.3272H138.572ZM137.254 5.4376H138.248C139.155 5.4376 139.609 5.0848 139.609 4.3792C139.609 4.0768 139.501 3.8464 139.285 3.688C139.069 3.5152 138.745 3.4288 138.313 3.4288H137.254V5.4376Z" fill="white"/>
</svg>
