<svg width="32" height="37" viewBox="0 0 32 37" fill="none" xmlns="http://www.w3.org/2000/svg">
<g filter="url(#filter0_d_179_911)">
<path d="M26.6663 28C26.6663 26.1392 26.6663 25.2089 26.4367 24.4518C25.9196 22.7473 24.5857 21.4134 22.8812 20.8963C22.1241 20.6667 21.1938 20.6667 19.333 20.6667H12.6663C10.8056 20.6667 9.87521 20.6667 9.11815 20.8963C7.41361 21.4134 6.07973 22.7473 5.56266 24.4518C5.33301 25.2089 5.33301 26.1392 5.33301 28M21.9997 10C21.9997 13.3137 19.3134 16 15.9997 16C12.686 16 9.99967 13.3137 9.99967 10C9.99967 6.68629 12.686 4 15.9997 4C19.3134 4 21.9997 6.68629 21.9997 10Z" stroke="white" stroke-width="2" stroke-linecap="round" stroke-linejoin="round"/>
</g>
<defs>
<filter id="filter0_d_179_911" x="-4" y="0" width="40" height="40" filterUnits="userSpaceOnUse" color-interpolation-filters="sRGB">
<feFlood flood-opacity="0" result="BackgroundImageFix"/>
<feColorMatrix in="SourceAlpha" type="matrix" values="0 0 0 0 0 0 0 0 0 0 0 0 0 0 0 0 0 0 127 0" result="hardAlpha"/>
<feOffset dy="4"/>
<feGaussianBlur stdDeviation="2"/>
<feComposite in2="hardAlpha" operator="out"/>
<feColorMatrix type="matrix" values="0 0 0 0 0 0 0 0 0 0 0 0 0 0 0 0 0 0 0.25 0"/>
<feBlend mode="normal" in2="BackgroundImageFix" result="effect1_dropShadow_179_911"/>
<feBlend mode="normal" in="SourceGraphic" in2="effect1_dropShadow_179_911" result="shape"/>
</filter>
</defs>
</svg>
